<?xml version="1.0" encoding="utf-8"?>
<!-- Generator: Adobe Illustrator 19.1.0, SVG Export Plug-In . SVG Version: 6.00 Build 0)  -->
<svg version="1.1" id="Layer_1" xmlns="http://www.w3.org/2000/svg" xmlns:xlink="http://www.w3.org/1999/xlink" x="0px" y="0px"
	 viewBox="-280 372 50 50" style="enable-background:new -280 372 50 50;" xml:space="preserve">
<style type="text/css">
	.st0{fill:#FF6E40;}
</style>
<path class="st0" d="M-259,375v1v9h-2c-1.6,0-3,1.4-3,3v22c0,1.6,1.4,3,3,3h2c-0.3,3.3-3.1,6-6.5,6s-6.2-2.7-6.5-6h3
	c1.6,0,3-1.4,3-3v-28c0-1.6-1.4-3-3-3h-8c-1.6,0-3,1.4-3,3v28c0,1.6,1.4,3,3,3h3c0.3,4.4,4,8,8.5,8s8.2-3.6,8.5-8h24
	c1.6,0,3-1.4,3-3v-22c0-1.6-1.4-3-3-3h-2v-9v-1h-1h-22H-259z M-257,377h20v12h-20V377z M-277,381h8c0.6,0,1,0.4,1,1v28
	c0,0.6-0.4,1-1,1h-8c-0.6,0-1-0.4-1-1v-28C-278,381.4-277.6,381-277,381z M-261,387h2v3v1h1h22h1v-1v-3h2c0.6,0,1,0.4,1,1v22
	c0,0.6-0.4,1-1,1h-28c-0.6,0-1-0.4-1-1v-22C-262,387.4-261.6,387-261,387z M-253,393c-1.1,0-2,0.9-2,2s0.9,2,2,2s2-0.9,2-2
	S-251.9,393-253,393z M-247,393c-1.1,0-2,0.9-2,2s0.9,2,2,2s2-0.9,2-2S-245.9,393-247,393z M-241,393c-1.1,0-2,0.9-2,2s0.9,2,2,2
	s2-0.9,2-2S-239.9,393-241,393z M-253,399c-1.1,0-2,0.9-2,2s0.9,2,2,2s2-0.9,2-2S-251.9,399-253,399z M-247,399c-1.1,0-2,0.9-2,2
	s0.9,2,2,2s2-0.9,2-2S-245.9,399-247,399z M-241,399c-1.1,0-2,0.9-2,2s0.9,2,2,2s2-0.9,2-2S-239.9,399-241,399z M-253,405
	c-1.1,0-2,0.9-2,2s0.9,2,2,2s2-0.9,2-2S-251.9,405-253,405z M-247,405c-1.1,0-2,0.9-2,2s0.9,2,2,2s2-0.9,2-2S-245.9,405-247,405z
	 M-241,405c-1.1,0-2,0.9-2,2s0.9,2,2,2s2-0.9,2-2S-239.9,405-241,405z"/>
</svg>
