<?xml version="1.0" encoding="utf-8"?>
<!-- Generator: Adobe Illustrator 19.1.0, SVG Export Plug-In . SVG Version: 6.00 Build 0)  -->
<svg version="1.1" id="Capa_1" xmlns="http://www.w3.org/2000/svg" xmlns:xlink="http://www.w3.org/1999/xlink" x="0px" y="0px"
	 viewBox="-270 361.9 70.1 70.1" style="enable-background:new -270 361.9 70.1 70.1;" xml:space="preserve">
<style type="text/css">
	.st0{fill:#4caf50;}
</style>
<g>
	<g>
		<path class="st0" d="M-204.9,394.1h-7h-0.9c-2.1,0-3.7,1.7-3.7,3.7v0.4c0,2.1,1.7,3.7,3.7,3.7h7h0.9c2.1,0,3.7-1.7,3.7-3.7l0-0.4
			C-201.2,395.8-202.8,394.1-204.9,394.1z"/>
		<path class="st0" d="M-204.9,384.8h-1.6v-18.1c0-2.6-2.1-4.7-4.7-4.7h-31.2c-2.6,0-4.7,2.1-4.7,4.7v13c-6.3,3.6-12.8,7.3-12.8,7.3
			c-3.5,1.5-8.7,6.1-8.7,17.2c0,1,0.1,1.9,0.2,2.8c0,0.3,0.1,0.5,0.1,0.8c0.1,0.6,0.2,1.3,0.3,1.9c0,0.2,0.1,0.4,0.1,0.6
			c0.2,0.7,0.4,1.3,0.6,1.9c0.1,0.3,0.2,0.6,0.4,0.9c0.1,0.3,0.3,0.6,0.4,0.9c0.2,0.3,0.4,0.6,0.5,0.9c0,0.1,0.1,0.1,0.1,0.2
			c4.6,6.9,13,6.9,13,6.9h5.7v5.4c0,2.6,2.1,4.7,4.7,4.7h31.2c2.6,0,4.7-2.1,4.7-4.7v-6.6h0.7v0h0.9c2.1,0,3.8-1.7,3.7-3.7l0-0.4
			c0-2.1-1.7-3.7-3.7-3.7h-0.9h-6.1h-0.9c-2.1,0-3.7,1.7-3.7,3.7v0.4c0,2.1,1.7,3.7,3.7,3.7h3v2.5H-244v-34c1.7-1.1,3.3-2.1,4.2-2.8
			c4.6-3.5,8.9-6.4,9.5-8.9c0.8-3.3-1.8-6.1-6.2-3.8c-1.4,0.7-4.3,2.3-7.5,4.1v-8.4l34.1,0v15.3h-2v0h-0.9c-2.1,0-3.7,1.7-3.7,3.7
			v0.4c0,2.1,1.7,3.7,3.7,3.7h0.9h6.1h0.9c2.1,0,3.7-1.7,3.7-3.7v-0.4C-201.2,386.5-202.8,384.8-204.9,384.8z M-226.9,424.9
			c1.3,0,2.4,1.1,2.4,2.4c0,1.3-1.1,2.4-2.4,2.4c-1.3,0-2.4-1.1-2.4-2.4C-229.3,426-228.2,424.9-226.9,424.9z M-221.9,366.5h-10
			c-0.3,0-0.6-0.3-0.6-0.6c0-0.3,0.3-0.6,0.6-0.6h10c0.3,0,0.6,0.3,0.6,0.6C-221.3,366.2-221.6,366.5-221.9,366.5z"/>
		<path class="st0" d="M-204.9,403.5h-0.9h-7c-2.1,0-3.7,1.7-3.7,3.7v0.4c0,2.1,1.7,3.7,3.7,3.7h0.9h6.1h0.9c2.1,0,3.7-1.7,3.7-3.7
			v-0.4C-201.2,405.1-202.8,403.5-204.9,403.5z"/>
	</g>
</g>
</svg>
